<svg width="14" height="14" viewBox="0 0 14 14" fill="none" xmlns="http://www.w3.org/2000/svg">
<path fill-rule="evenodd" clip-rule="evenodd" d="M9 4H2C1.44772 4 1 4.44772 1 5V12C1 12.5523 1.44772 13 2 13H9C9.55228 13 10 12.5523 10 12V5C10 4.44772 9.55228 4 9 4ZM2 3C0.895431 3 0 3.89543 0 5V12C0 13.1046 0.895431 14 2 14H9C10.1046 14 11 13.1046 11 12V5C11 3.89543 10.1046 3 9 3H2Z" fill="#fff"/>
<path d="M12 1H5C4.44772 1 4 1.44772 4 2H3C3 0.895431 3.89543 0 5 0H12C13.1046 0 14 0.895431 14 2V9C14 10.1046 13.1046 11 12 11V10C12.5523 10 13 9.55228 13 9V2C13 1.44772 12.5523 1 12 1Z" fill="#fff"/>
</svg>
